<svg viewBox="0 0 330 200" xmlns="http://www.w3.org/2000/svg"><g><g><g><g><g><line x1="50" y1="178" x2="45" y2="178" style="visibility: inherit;" fill="rgb(0, 0, 0)" stroke="rgb(204, 204, 204)" stroke-width="1px"></line><line x1="50" y1="158.22222222222223" x2="45" y2="158.22222222222223" style="visibility: inherit;" fill="rgb(0, 0, 0)" stroke="rgb(204, 204, 204)" stroke-width="1px"></line><line x1="50" y1="138.44444444444446" x2="45" y2="138.44444444444446" style="visibility: inherit;" fill="rgb(0, 0, 0)" stroke="rgb(204, 204, 204)" stroke-width="1px"></line><line x1="50" y1="118.66666666666667" x2="45" y2="118.66666666666667" style="visibility: inherit;" fill="rgb(0, 0, 0)" stroke="rgb(204, 204, 204)" stroke-width="1px"></line><line x1="50" y1="98.8888888888889" x2="45" y2="98.8888888888889" style="visibility: inherit;" fill="rgb(0, 0, 0)" stroke="rgb(204, 204, 204)" stroke-width="1px"></line><line x1="50" y1="79.1111111111111" x2="45" y2="79.1111111111111" style="visibility: inherit;" fill="rgb(0, 0, 0)" stroke="rgb(204, 204, 204)" stroke-width="1px"></line><line x1="50" y1="59.33333333333334" x2="45" y2="59.33333333333334" style="visibility: inherit;" fill="rgb(0, 0, 0)" stroke="rgb(204, 204, 204)" stroke-width="1px"></line><line x1="50" y1="39.55555555555554" x2="45" y2="39.55555555555554" style="visibility: inherit;" fill="rgb(0, 0, 0)" stroke="rgb(204, 204, 204)" stroke-width="1px"></line><line x1="50" y1="19.7777777777778" x2="45" y2="19.7777777777778" style="visibility: inherit;" fill="rgb(0, 0, 0)" stroke="rgb(204, 204, 204)" stroke-width="1px"></line><line x1="50" y1="0" x2="45" y2="0" style="visibility: inherit;" fill="rgb(0, 0, 0)" stroke="rgb(204, 204, 204)" stroke-width="1px"></line></g><g transform="translate(40, 0)"><text x="0" y="178" dx="0em" dy="0.3em" style="text-anchor: end; visibility: hidden; font-family: &quot;Helvetica Neue&quot;, sans-serif; font-size: 12px; font-weight: 200;" fill="rgb(50, 49, 63)" stroke="none" stroke-width="1px">-0.5</text><text x="0" y="158.22222222222223" dx="0em" dy="0.3em" style="text-anchor: end; visibility: inherit; font-family: &quot;Helvetica Neue&quot;, sans-serif; font-size: 12px; font-weight: 200;" fill="rgb(50, 49, 63)" stroke="none" stroke-width="1px">0</text><text x="0" y="138.44444444444446" dx="0em" dy="0.3em" style="text-anchor: end; visibility: hidden; font-family: &quot;Helvetica Neue&quot;, sans-serif; font-size: 12px; font-weight: 200;" fill="rgb(50, 49, 63)" stroke="none" stroke-width="1px">0.5</text><text x="0" y="118.66666666666667" dx="0em" dy="0.3em" style="text-anchor: end; visibility: inherit; font-family: &quot;Helvetica Neue&quot;, sans-serif; font-size: 12px; font-weight: 200;" fill="rgb(50, 49, 63)" stroke="none" stroke-width="1px">1</text><text x="0" y="98.8888888888889" dx="0em" dy="0.3em" style="text-anchor: end; visibility: hidden; font-family: &quot;Helvetica Neue&quot;, sans-serif; font-size: 12px; font-weight: 200;" fill="rgb(50, 49, 63)" stroke="none" stroke-width="1px">1.5</text><text x="0" y="79.1111111111111" dx="0em" dy="0.3em" style="text-anchor: end; visibility: inherit; font-family: &quot;Helvetica Neue&quot;, sans-serif; font-size: 12px; font-weight: 200;" fill="rgb(50, 49, 63)" stroke="none" stroke-width="1px">2</text><text x="0" y="59.33333333333334" dx="0em" dy="0.3em" style="text-anchor: end; visibility: hidden; font-family: &quot;Helvetica Neue&quot;, sans-serif; font-size: 12px; font-weight: 200;" fill="rgb(50, 49, 63)" stroke="none" stroke-width="1px">2.5</text><text x="0" y="39.55555555555554" dx="0em" dy="0.3em" style="text-anchor: end; visibility: inherit; font-family: &quot;Helvetica Neue&quot;, sans-serif; font-size: 12px; font-weight: 200;" fill="rgb(50, 49, 63)" stroke="none" stroke-width="1px">3</text><text x="0" y="19.7777777777778" dx="0em" dy="0.3em" style="text-anchor: end; visibility: hidden; font-family: &quot;Helvetica Neue&quot;, sans-serif; font-size: 12px; font-weight: 200;" fill="rgb(50, 49, 63)" stroke="none" stroke-width="1px">3.5</text><text x="0" y="0" dx="0em" dy="0.3em" style="text-anchor: end; visibility: hidden; font-family: &quot;Helvetica Neue&quot;, sans-serif; font-size: 12px; font-weight: 200;" fill="rgb(50, 49, 63)" stroke="none" stroke-width="1px">4</text></g><line x1="50" y1="0" x2="50" y2="178" fill="rgb(0, 0, 0)" stroke="rgb(204, 204, 204)" stroke-width="1px"></line></g></g><g transform="translate(50, 0)" clip-path="url(#clip_0)"><clipPath id="clip_0"><rect width="280" height="177"></rect></clipPath><g><g><g><line x1="0" y1="0" x2="0" y2="178" fill="rgb(0, 0, 0)" stroke="rgb(60, 60, 60)" stroke-width="1px" opacity="0.25"></line><line x1="23.333333333333332" y1="0" x2="23.333333333333332" y2="178" fill="rgb(0, 0, 0)" stroke="rgb(60, 60, 60)" stroke-width="1px" opacity="0.25"></line><line x1="46.666666666666664" y1="0" x2="46.666666666666664" y2="178" fill="rgb(0, 0, 0)" stroke="rgb(60, 60, 60)" stroke-width="1px" opacity="0.25"></line><line x1="70" y1="0" x2="70" y2="178" fill="rgb(0, 0, 0)" stroke="rgb(60, 60, 60)" stroke-width="1px" opacity="0.25"></line><line x1="93.33333333333333" y1="0" x2="93.33333333333333" y2="178" fill="rgb(0, 0, 0)" stroke="rgb(60, 60, 60)" stroke-width="1px" opacity="0.25"></line><line x1="116.66666666666667" y1="0" x2="116.66666666666667" y2="178" fill="rgb(0, 0, 0)" stroke="rgb(60, 60, 60)" stroke-width="1px" opacity="0.25"></line><line x1="140" y1="0" x2="140" y2="178" fill="rgb(0, 0, 0)" stroke="rgb(60, 60, 60)" stroke-width="1px" opacity="0.25"></line><line x1="163.33333333333334" y1="0" x2="163.33333333333334" y2="178" fill="rgb(0, 0, 0)" stroke="rgb(60, 60, 60)" stroke-width="1px" opacity="0.25"></line><line x1="186.66666666666666" y1="0" x2="186.66666666666666" y2="178" fill="rgb(0, 0, 0)" stroke="rgb(60, 60, 60)" stroke-width="1px" opacity="0.25"></line><line x1="210" y1="0" x2="210" y2="178" fill="rgb(0, 0, 0)" stroke="rgb(60, 60, 60)" stroke-width="1px" opacity="0.25"></line><line x1="233.33333333333334" y1="0" x2="233.33333333333334" y2="178" fill="rgb(0, 0, 0)" stroke="rgb(60, 60, 60)" stroke-width="1px" opacity="0.25"></line><line x1="256.66666666666663" y1="0" x2="256.66666666666663" y2="178" fill="rgb(0, 0, 0)" stroke="rgb(60, 60, 60)" stroke-width="1px" opacity="0.25"></line><line x1="280" y1="0" x2="280" y2="178" fill="rgb(0, 0, 0)" stroke="rgb(60, 60, 60)" stroke-width="1px" opacity="0.25"></line></g><g><line x1="0" y1="178" x2="280" y2="178" fill="rgb(0, 0, 0)" stroke="rgb(60, 60, 60)" stroke-width="1px" opacity="0.25"></line><line x1="0" y1="158.22222222222223" x2="280" y2="158.22222222222223" fill="rgb(0, 0, 0)" stroke="rgb(60, 60, 60)" stroke-width="1px" opacity="0.25"></line><line x1="0" y1="138.44444444444446" x2="280" y2="138.44444444444446" fill="rgb(0, 0, 0)" stroke="rgb(60, 60, 60)" stroke-width="1px" opacity="0.25"></line><line x1="0" y1="118.66666666666667" x2="280" y2="118.66666666666667" fill="rgb(0, 0, 0)" stroke="rgb(60, 60, 60)" stroke-width="1px" opacity="0.25"></line><line x1="0" y1="98.8888888888889" x2="280" y2="98.8888888888889" fill="rgb(0, 0, 0)" stroke="rgb(60, 60, 60)" stroke-width="1px" opacity="0.25"></line><line x1="0" y1="79.1111111111111" x2="280" y2="79.1111111111111" fill="rgb(0, 0, 0)" stroke="rgb(60, 60, 60)" stroke-width="1px" opacity="0.25"></line><line x1="0" y1="59.33333333333334" x2="280" y2="59.33333333333334" fill="rgb(0, 0, 0)" stroke="rgb(60, 60, 60)" stroke-width="1px" opacity="0.25"></line><line x1="0" y1="39.55555555555554" x2="280" y2="39.55555555555554" fill="rgb(0, 0, 0)" stroke="rgb(60, 60, 60)" stroke-width="1px" opacity="0.25"></line><line x1="0" y1="19.7777777777778" x2="280" y2="19.7777777777778" fill="rgb(0, 0, 0)" stroke="rgb(60, 60, 60)" stroke-width="1px" opacity="0.25"></line><line x1="0" y1="0" x2="280" y2="0" fill="rgb(0, 0, 0)" stroke="rgb(60, 60, 60)" stroke-width="1px" opacity="0.25"></line></g></g></g><g><g><line x1="0" y1="158.22222222222223" x2="280" y2="158.22222222222223" fill="rgb(0, 0, 0)" stroke="rgb(153, 153, 153)" stroke-width="1.5px"></line></g></g><g><g><line x1="23.333333333333332" y1="0" x2="23.333333333333332" y2="178" fill="rgb(0, 0, 0)" stroke="rgb(153, 153, 153)" stroke-width="1.5px"></line></g></g><g><g><g><g><g><path stroke="rgb(0, 153, 136)" stroke-width="2px" d="M23.333333333333332,80.22064230177138L24.5,83.88995578553941L25.666666666666664,85.18384928173488L26.833333333333336,86.66298686133491L28,87.59603044721815L29.166666666666668,88.59625890519884L30.333333333333336,88.99972650739882L31.5,89.87007898754543L32.666666666666664,90.8980433675978L33.833333333333336,91.14745447370741L35,92.21251953972711L36.16666666666667,94.06944470935399L37.333333333333336,94.4467371834649L38.5,95.86271211836073L39.666666666666664,96.72576517528957L40.833333333333336,98.02680248684352L42,98.96288278367784L43.16666666666667,100.15315559175279L44.33333333333333,100.1906099319458L45.5,101.6918061044481L46.666666666666664,101.96950011783177L47.833333333333336,102.22713014814589L49,103.35536728964911L50.166666666666664,103.79051287968953L51.33333333333333,104.29553111394246L52.5,106.05172141393025L53.66666666666667,107.29256206088597L54.833333333333336,108.44900194803874L56,108.70112911860149L57.166666666666664,109.08611710866292L58.333333333333336,109.52934487660725L59.5,111.17694446775648L60.66666666666667,111.73007853825887L61.83333333333333,113.28463877571954L63,113.6116557651096L64.16666666666666,115.37491443422107L65.33333333333333,114.82619868384467L66.5,116.3895672692193L67.66666666666667,115.39011213514539L68.83333333333333,118.48445457882352L70,118.6995423634847L71.16666666666666,119.87788995107015L72.33333333333334,119.58849234051175L73.5,121.06120755937366L74.66666666666667,120.97411195437114L75.83333333333333,121.22112528483073L77,121.9658715724945L78.16666666666667,123.50688449541728L79.33333333333333,123.57513976097107L80.5,124.02744229634602L81.66666666666667,122.01828077104358L82.83333333333333,124.09670193990071L84,124.18595719337463L85.16666666666666,125.46738555696277L86.33333333333334,125.5147092077467L87.5,127.14191709624396L88.66666666666666,126.64729158083598L89.83333333333334,127.72085377905103L91,126.80297960175409L92.16666666666667,127.3631230990092L93.33333333333333,128.87160454856024L94.5,129.59702009624905L95.66666666666667,130.36888223224216L96.83333333333333,131.21998177634345L98,132.21728669272528L99.16666666666667,133.53484672970242L100.33333333333333,131.46199443605212L101.5,131.8742916054196L102.66666666666666,134.22321110301547L103.83333333333334,133.4320111539629L105,133.96965516938104L106.16666666666666,134.68302525414362L107.33333333333334,135.18353793356152L108.5,134.2870999177297L109.66666666666667,135.93556006749472L110.83333333333333,135.6435171233283L112,136.4831535551283L113.16666666666667,135.96497702598572L114.33333333333333,137.1494970586565L115.5,138.38098237249585L116.66666666666667,138.23124517334833L117.83333333333333,138.3283421198527L119,139.06612849235535L120.16666666666666,138.7343831459681L121.33333333333334,139.44339621067047L122.5,140.43605057398477L123.66666666666666,140.67478014363184L124.83333333333334,141.5354578230116L126,140.93598561816745L127.16666666666667,140.68287646770477L128.33333333333331,140.28814058833652L129.5,141.63646618525186L130.66666666666666,138.88369596004486L131.83333333333334,140.41797766420575L133,142.24898233678607L134.16666666666669,143.3092648188273L135.33333333333334,142.72469206651053L136.5,144.3466977013482L137.66666666666666,144.0898551411099L138.83333333333334,144.69568840662637L140,145.6918804910448L141.16666666666666,144.42735679944357L142.33333333333331,145.3049250046412L143.5,141.9416650666131L144.66666666666669,144.63570157686868L145.83333333333334,144.58109972212048L147,144.7424851126141L148.16666666666666,146.60075181060367L149.33333333333334,146.93404380480447L150.5,147.39830103185443L151.66666666666666,146.6203418970108L152.83333333333331,144.7171552181244L154,145.76800220542484L155.16666666666669,147.03459477424622L156.33333333333334,147.2851705816057L157.5,147.42017100916968L158.66666666666666,147.74841164218054L159.83333333333331,148.08108474148645L161,147.8030476835039L162.16666666666669,148.4268913798862L163.33333333333334,148.82008061144086L164.5,148.71861249870724L165.66666666666666,148.09624707698822L166.83333333333334,148.32845644156137L168,149.18091991212634L169.16666666666666,150.1245183083746L170.33333333333331,148.84225944677988L171.5,150.03093373775482L172.66666666666669,149.8316448662016L173.83333333333334,150.63094644414053L175,149.96162163549L176.16666666666666,150.80643379688263L177.33333333333331,150.23020964198642L178.5,150.9086039132542L179.66666666666669,150.97221510940128L180.83333333333334,151.12190456522836L182,151.53135658635034L183.16666666666666,151.13483239544763L184.33333333333334,151.93047659926944L185.5,151.6945055325826L186.66666666666666,150.11295145750046L187.83333333333331,151.49644855658212L189,152.0230214264658L190.16666666666669,152.05378993352255L191.33333333333334,151.85602472225824L192.5,152.59848935074277L193.66666666666666,151.99165288607279L194.83333333333331,152.9354953037368L196,153.1960877776146L197.16666666666669,152.97057131926218L198.33333333333334,152.6251495745447L199.5,153.33462946282492L200.66666666666666,153.47093281149864L201.83333333333334,152.54920350843005L203,152.1109363304244L204.16666666666666,153.2429717183113L205.33333333333331,152.973829653528L206.5,153.02235219213696L207.66666666666669,153.8038183980518L208.83333333333334,153.7671008374956L210,154.26290520032248L211.16666666666666,154.0169616738955L212.33333333333331,154.30311038096747L213.5,154.25129532151752L214.66666666666669,153.87934538390903L215.83333333333334,153.74820450279447L217,154.30582556128502L218.16666666666666,154.2173695663611L219.33333333333334,154.39898221029176L220.5,154.16957231362662L221.66666666666666,153.75049176149898L222.83333333333331,154.19040873646736L224,154.34150455726518L225.16666666666669,154.3964193960031L226.33333333333334,155.05950014458762L227.5,155.246886783176L228.66666666666666,155.68123370409012L229.83333333333331,155.70772063732147L231,155.21996927592488L232.16666666666669,154.38784534401364L233.33333333333334,154.25631485382715L234.5,154.56117540597916L235.66666666666666,155.42189699742528L236.83333333333334,154.46348490979938L238,154.89265551169714L239.16666666666666,154.82948048909506L240.33333333333331,154.96823790338306L241.5,155.32963627245692L242.66666666666669,154.98389653364816L243.83333333333334,155.62243780493736L245,155.1497046649456L246.16666666666666,154.55954830182924L247.33333333333331,155.35826635029582L248.5,131.00882898436652L249.66666666666669,70.15070131089952L250.83333333333334,41.987121687995085L252,74.413102361891L253.16666666666666,79.58907243940565L254.33333333333334,80.12060530980429L255.5,80.24297438727486" style="fill: none;" fill="none"></path></g></g></g></g></g></g><g transform="translate(50, 178)" clip-path="url(#clip_1)"><clipPath id="clip_1"><rect width="280" height="21"></rect></clipPath><g><g><line x1="0" y1="0" x2="0" y2="5" style="visibility: inherit;" fill="rgb(0, 0, 0)" stroke="rgb(204, 204, 204)" stroke-width="1px"></line><line x1="23.333333333333332" y1="0" x2="23.333333333333332" y2="5" style="visibility: inherit;" fill="rgb(0, 0, 0)" stroke="rgb(204, 204, 204)" stroke-width="1px"></line><line x1="46.666666666666664" y1="0" x2="46.666666666666664" y2="5" style="visibility: inherit;" fill="rgb(0, 0, 0)" stroke="rgb(204, 204, 204)" stroke-width="1px"></line><line x1="70" y1="0" x2="70" y2="5" style="visibility: inherit;" fill="rgb(0, 0, 0)" stroke="rgb(204, 204, 204)" stroke-width="1px"></line><line x1="93.33333333333333" y1="0" x2="93.33333333333333" y2="5" style="visibility: inherit;" fill="rgb(0, 0, 0)" stroke="rgb(204, 204, 204)" stroke-width="1px"></line><line x1="116.66666666666667" y1="0" x2="116.66666666666667" y2="5" style="visibility: inherit;" fill="rgb(0, 0, 0)" stroke="rgb(204, 204, 204)" stroke-width="1px"></line><line x1="140" y1="0" x2="140" y2="5" style="visibility: inherit;" fill="rgb(0, 0, 0)" stroke="rgb(204, 204, 204)" stroke-width="1px"></line><line x1="163.33333333333334" y1="0" x2="163.33333333333334" y2="5" style="visibility: inherit;" fill="rgb(0, 0, 0)" stroke="rgb(204, 204, 204)" stroke-width="1px"></line><line x1="186.66666666666666" y1="0" x2="186.66666666666666" y2="5" style="visibility: inherit;" fill="rgb(0, 0, 0)" stroke="rgb(204, 204, 204)" stroke-width="1px"></line><line x1="210" y1="0" x2="210" y2="5" style="visibility: inherit;" fill="rgb(0, 0, 0)" stroke="rgb(204, 204, 204)" stroke-width="1px"></line><line x1="233.33333333333334" y1="0" x2="233.33333333333334" y2="5" style="visibility: inherit;" fill="rgb(0, 0, 0)" stroke="rgb(204, 204, 204)" stroke-width="1px"></line><line x1="256.66666666666663" y1="0" x2="256.66666666666663" y2="5" style="visibility: inherit;" fill="rgb(0, 0, 0)" stroke="rgb(204, 204, 204)" stroke-width="1px"></line><line x1="280" y1="0" x2="280" y2="5" style="visibility: inherit;" fill="rgb(0, 0, 0)" stroke="rgb(204, 204, 204)" stroke-width="1px"></line></g><g transform="translate(0, 8)"><text x="0" y="0" dx="0em" dy="0.95em" style="text-anchor: middle; visibility: hidden; font-family: &quot;Helvetica Neue&quot;, sans-serif; font-size: 12px; font-weight: 200;" fill="rgb(50, 49, 63)" stroke="none" stroke-width="1px">-20</text><text x="23.333333333333332" y="0" dx="0em" dy="0.95em" style="text-anchor: middle; visibility: inherit; font-family: &quot;Helvetica Neue&quot;, sans-serif; font-size: 12px; font-weight: 200;" fill="rgb(50, 49, 63)" stroke="none" stroke-width="1px">0</text><text x="46.666666666666664" y="0" dx="0em" dy="0.95em" style="text-anchor: middle; visibility: hidden; font-family: &quot;Helvetica Neue&quot;, sans-serif; font-size: 12px; font-weight: 200;" fill="rgb(50, 49, 63)" stroke="none" stroke-width="1px">20</text><text x="70" y="0" dx="0em" dy="0.95em" style="text-anchor: middle; visibility: inherit; font-family: &quot;Helvetica Neue&quot;, sans-serif; font-size: 12px; font-weight: 200;" fill="rgb(50, 49, 63)" stroke="none" stroke-width="1px">40</text><text x="93.33333333333333" y="0" dx="0em" dy="0.95em" style="text-anchor: middle; visibility: hidden; font-family: &quot;Helvetica Neue&quot;, sans-serif; font-size: 12px; font-weight: 200;" fill="rgb(50, 49, 63)" stroke="none" stroke-width="1px">60</text><text x="116.66666666666667" y="0" dx="0em" dy="0.95em" style="text-anchor: middle; visibility: inherit; font-family: &quot;Helvetica Neue&quot;, sans-serif; font-size: 12px; font-weight: 200;" fill="rgb(50, 49, 63)" stroke="none" stroke-width="1px">80</text><text x="140" y="0" dx="0em" dy="0.95em" style="text-anchor: middle; visibility: hidden; font-family: &quot;Helvetica Neue&quot;, sans-serif; font-size: 12px; font-weight: 200;" fill="rgb(50, 49, 63)" stroke="none" stroke-width="1px">100</text><text x="163.33333333333334" y="0" dx="0em" dy="0.95em" style="text-anchor: middle; visibility: inherit; font-family: &quot;Helvetica Neue&quot;, sans-serif; font-size: 12px; font-weight: 200;" fill="rgb(50, 49, 63)" stroke="none" stroke-width="1px">120</text><text x="186.66666666666666" y="0" dx="0em" dy="0.95em" style="text-anchor: middle; visibility: hidden; font-family: &quot;Helvetica Neue&quot;, sans-serif; font-size: 12px; font-weight: 200;" fill="rgb(50, 49, 63)" stroke="none" stroke-width="1px">140</text><text x="210" y="0" dx="0em" dy="0.95em" style="text-anchor: middle; visibility: inherit; font-family: &quot;Helvetica Neue&quot;, sans-serif; font-size: 12px; font-weight: 200;" fill="rgb(50, 49, 63)" stroke="none" stroke-width="1px">160</text><text x="233.33333333333334" y="0" dx="0em" dy="0.95em" style="text-anchor: middle; visibility: hidden; font-family: &quot;Helvetica Neue&quot;, sans-serif; font-size: 12px; font-weight: 200;" fill="rgb(50, 49, 63)" stroke="none" stroke-width="1px">180</text><text x="256.66666666666663" y="0" dx="0em" dy="0.95em" style="text-anchor: middle; visibility: inherit; font-family: &quot;Helvetica Neue&quot;, sans-serif; font-size: 12px; font-weight: 200;" fill="rgb(50, 49, 63)" stroke="none" stroke-width="1px">200</text><text x="280" y="0" dx="0em" dy="0.95em" style="text-anchor: middle; visibility: hidden; font-family: &quot;Helvetica Neue&quot;, sans-serif; font-size: 12px; font-weight: 200;" fill="rgb(50, 49, 63)" stroke="none" stroke-width="1px">220</text></g><line x1="0" y1="0" x2="280" y2="0" fill="rgb(0, 0, 0)" stroke="rgb(204, 204, 204)" stroke-width="1px"></line></g></g></g></g></svg>