<svg viewBox="0 0 330 200" xmlns="http://www.w3.org/2000/svg"><g><g><g><g><g><line x1="50" y1="178" x2="45" y2="178" style="visibility: inherit;" fill="rgb(0, 0, 0)" stroke="rgb(204, 204, 204)" stroke-width="1px"></line><line x1="50" y1="164.30769230769232" x2="45" y2="164.30769230769232" style="visibility: inherit;" fill="rgb(0, 0, 0)" stroke="rgb(204, 204, 204)" stroke-width="1px"></line><line x1="50" y1="150.6153846153846" x2="45" y2="150.6153846153846" style="visibility: inherit;" fill="rgb(0, 0, 0)" stroke="rgb(204, 204, 204)" stroke-width="1px"></line><line x1="50" y1="136.9230769230769" x2="45" y2="136.9230769230769" style="visibility: inherit;" fill="rgb(0, 0, 0)" stroke="rgb(204, 204, 204)" stroke-width="1px"></line><line x1="50" y1="123.23076923076923" x2="45" y2="123.23076923076923" style="visibility: inherit;" fill="rgb(0, 0, 0)" stroke="rgb(204, 204, 204)" stroke-width="1px"></line><line x1="50" y1="109.53846153846155" x2="45" y2="109.53846153846155" style="visibility: inherit;" fill="rgb(0, 0, 0)" stroke="rgb(204, 204, 204)" stroke-width="1px"></line><line x1="50" y1="95.84615384615385" x2="45" y2="95.84615384615385" style="visibility: inherit;" fill="rgb(0, 0, 0)" stroke="rgb(204, 204, 204)" stroke-width="1px"></line><line x1="50" y1="82.15384615384616" x2="45" y2="82.15384615384616" style="visibility: inherit;" fill="rgb(0, 0, 0)" stroke="rgb(204, 204, 204)" stroke-width="1px"></line><line x1="50" y1="68.46153846153848" x2="45" y2="68.46153846153848" style="visibility: inherit;" fill="rgb(0, 0, 0)" stroke="rgb(204, 204, 204)" stroke-width="1px"></line><line x1="50" y1="54.769230769230774" x2="45" y2="54.769230769230774" style="visibility: inherit;" fill="rgb(0, 0, 0)" stroke="rgb(204, 204, 204)" stroke-width="1px"></line><line x1="50" y1="41.076923076923094" x2="45" y2="41.076923076923094" style="visibility: inherit;" fill="rgb(0, 0, 0)" stroke="rgb(204, 204, 204)" stroke-width="1px"></line><line x1="50" y1="27.384615384615387" x2="45" y2="27.384615384615387" style="visibility: inherit;" fill="rgb(0, 0, 0)" stroke="rgb(204, 204, 204)" stroke-width="1px"></line><line x1="50" y1="13.69230769230768" x2="45" y2="13.69230769230768" style="visibility: inherit;" fill="rgb(0, 0, 0)" stroke="rgb(204, 204, 204)" stroke-width="1px"></line><line x1="50" y1="0" x2="45" y2="0" style="visibility: inherit;" fill="rgb(0, 0, 0)" stroke="rgb(204, 204, 204)" stroke-width="1px"></line></g><g transform="translate(40, 0)"><text x="0" y="178" dx="0em" dy="0.3em" style="text-anchor: end; visibility: hidden; font-family: &quot;Helvetica Neue&quot;, sans-serif; font-size: 12px; font-weight: 200;" fill="rgb(50, 49, 63)" stroke="none" stroke-width="1px">-0.1</text><text x="0" y="164.30769230769232" dx="0em" dy="0.3em" style="text-anchor: end; visibility: inherit; font-family: &quot;Helvetica Neue&quot;, sans-serif; font-size: 12px; font-weight: 200;" fill="rgb(50, 49, 63)" stroke="none" stroke-width="1px">0</text><text x="0" y="150.6153846153846" dx="0em" dy="0.3em" style="text-anchor: end; visibility: hidden; font-family: &quot;Helvetica Neue&quot;, sans-serif; font-size: 12px; font-weight: 200;" fill="rgb(50, 49, 63)" stroke="none" stroke-width="1px">0.1</text><text x="0" y="136.9230769230769" dx="0em" dy="0.3em" style="text-anchor: end; visibility: inherit; font-family: &quot;Helvetica Neue&quot;, sans-serif; font-size: 12px; font-weight: 200;" fill="rgb(50, 49, 63)" stroke="none" stroke-width="1px">0.2</text><text x="0" y="123.23076923076923" dx="0em" dy="0.3em" style="text-anchor: end; visibility: hidden; font-family: &quot;Helvetica Neue&quot;, sans-serif; font-size: 12px; font-weight: 200;" fill="rgb(50, 49, 63)" stroke="none" stroke-width="1px">0.3</text><text x="0" y="109.53846153846155" dx="0em" dy="0.3em" style="text-anchor: end; visibility: inherit; font-family: &quot;Helvetica Neue&quot;, sans-serif; font-size: 12px; font-weight: 200;" fill="rgb(50, 49, 63)" stroke="none" stroke-width="1px">0.4</text><text x="0" y="95.84615384615385" dx="0em" dy="0.3em" style="text-anchor: end; visibility: hidden; font-family: &quot;Helvetica Neue&quot;, sans-serif; font-size: 12px; font-weight: 200;" fill="rgb(50, 49, 63)" stroke="none" stroke-width="1px">0.5</text><text x="0" y="82.15384615384616" dx="0em" dy="0.3em" style="text-anchor: end; visibility: inherit; font-family: &quot;Helvetica Neue&quot;, sans-serif; font-size: 12px; font-weight: 200;" fill="rgb(50, 49, 63)" stroke="none" stroke-width="1px">0.6</text><text x="0" y="68.46153846153848" dx="0em" dy="0.3em" style="text-anchor: end; visibility: hidden; font-family: &quot;Helvetica Neue&quot;, sans-serif; font-size: 12px; font-weight: 200;" fill="rgb(50, 49, 63)" stroke="none" stroke-width="1px">0.7</text><text x="0" y="54.769230769230774" dx="0em" dy="0.3em" style="text-anchor: end; visibility: inherit; font-family: &quot;Helvetica Neue&quot;, sans-serif; font-size: 12px; font-weight: 200;" fill="rgb(50, 49, 63)" stroke="none" stroke-width="1px">0.8</text><text x="0" y="41.076923076923094" dx="0em" dy="0.3em" style="text-anchor: end; visibility: hidden; font-family: &quot;Helvetica Neue&quot;, sans-serif; font-size: 12px; font-weight: 200;" fill="rgb(50, 49, 63)" stroke="none" stroke-width="1px">0.9</text><text x="0" y="27.384615384615387" dx="0em" dy="0.3em" style="text-anchor: end; visibility: inherit; font-family: &quot;Helvetica Neue&quot;, sans-serif; font-size: 12px; font-weight: 200;" fill="rgb(50, 49, 63)" stroke="none" stroke-width="1px">1</text><text x="0" y="13.69230769230768" dx="0em" dy="0.3em" style="text-anchor: end; visibility: hidden; font-family: &quot;Helvetica Neue&quot;, sans-serif; font-size: 12px; font-weight: 200;" fill="rgb(50, 49, 63)" stroke="none" stroke-width="1px">1.1</text><text x="0" y="0" dx="0em" dy="0.3em" style="text-anchor: end; visibility: hidden; font-family: &quot;Helvetica Neue&quot;, sans-serif; font-size: 12px; font-weight: 200;" fill="rgb(50, 49, 63)" stroke="none" stroke-width="1px">1.2</text></g><line x1="50" y1="0" x2="50" y2="178" fill="rgb(0, 0, 0)" stroke="rgb(204, 204, 204)" stroke-width="1px"></line></g></g><g transform="translate(50, 0)" clip-path="url(#clip_0)"><clipPath id="clip_0"><rect width="280" height="177"></rect></clipPath><g><g><g><line x1="0" y1="0" x2="0" y2="178" fill="rgb(0, 0, 0)" stroke="rgb(60, 60, 60)" stroke-width="1px" opacity="0.25"></line><line x1="23.333333333333332" y1="0" x2="23.333333333333332" y2="178" fill="rgb(0, 0, 0)" stroke="rgb(60, 60, 60)" stroke-width="1px" opacity="0.25"></line><line x1="46.666666666666664" y1="0" x2="46.666666666666664" y2="178" fill="rgb(0, 0, 0)" stroke="rgb(60, 60, 60)" stroke-width="1px" opacity="0.25"></line><line x1="70" y1="0" x2="70" y2="178" fill="rgb(0, 0, 0)" stroke="rgb(60, 60, 60)" stroke-width="1px" opacity="0.25"></line><line x1="93.33333333333333" y1="0" x2="93.33333333333333" y2="178" fill="rgb(0, 0, 0)" stroke="rgb(60, 60, 60)" stroke-width="1px" opacity="0.25"></line><line x1="116.66666666666667" y1="0" x2="116.66666666666667" y2="178" fill="rgb(0, 0, 0)" stroke="rgb(60, 60, 60)" stroke-width="1px" opacity="0.25"></line><line x1="140" y1="0" x2="140" y2="178" fill="rgb(0, 0, 0)" stroke="rgb(60, 60, 60)" stroke-width="1px" opacity="0.25"></line><line x1="163.33333333333334" y1="0" x2="163.33333333333334" y2="178" fill="rgb(0, 0, 0)" stroke="rgb(60, 60, 60)" stroke-width="1px" opacity="0.25"></line><line x1="186.66666666666666" y1="0" x2="186.66666666666666" y2="178" fill="rgb(0, 0, 0)" stroke="rgb(60, 60, 60)" stroke-width="1px" opacity="0.25"></line><line x1="210" y1="0" x2="210" y2="178" fill="rgb(0, 0, 0)" stroke="rgb(60, 60, 60)" stroke-width="1px" opacity="0.25"></line><line x1="233.33333333333334" y1="0" x2="233.33333333333334" y2="178" fill="rgb(0, 0, 0)" stroke="rgb(60, 60, 60)" stroke-width="1px" opacity="0.25"></line><line x1="256.66666666666663" y1="0" x2="256.66666666666663" y2="178" fill="rgb(0, 0, 0)" stroke="rgb(60, 60, 60)" stroke-width="1px" opacity="0.25"></line><line x1="280" y1="0" x2="280" y2="178" fill="rgb(0, 0, 0)" stroke="rgb(60, 60, 60)" stroke-width="1px" opacity="0.25"></line></g><g><line x1="0" y1="178" x2="280" y2="178" fill="rgb(0, 0, 0)" stroke="rgb(60, 60, 60)" stroke-width="1px" opacity="0.25"></line><line x1="0" y1="164.30769230769232" x2="280" y2="164.30769230769232" fill="rgb(0, 0, 0)" stroke="rgb(60, 60, 60)" stroke-width="1px" opacity="0.25"></line><line x1="0" y1="150.6153846153846" x2="280" y2="150.6153846153846" fill="rgb(0, 0, 0)" stroke="rgb(60, 60, 60)" stroke-width="1px" opacity="0.25"></line><line x1="0" y1="136.9230769230769" x2="280" y2="136.9230769230769" fill="rgb(0, 0, 0)" stroke="rgb(60, 60, 60)" stroke-width="1px" opacity="0.25"></line><line x1="0" y1="123.23076923076923" x2="280" y2="123.23076923076923" fill="rgb(0, 0, 0)" stroke="rgb(60, 60, 60)" stroke-width="1px" opacity="0.25"></line><line x1="0" y1="109.53846153846155" x2="280" y2="109.53846153846155" fill="rgb(0, 0, 0)" stroke="rgb(60, 60, 60)" stroke-width="1px" opacity="0.25"></line><line x1="0" y1="95.84615384615385" x2="280" y2="95.84615384615385" fill="rgb(0, 0, 0)" stroke="rgb(60, 60, 60)" stroke-width="1px" opacity="0.25"></line><line x1="0" y1="82.15384615384616" x2="280" y2="82.15384615384616" fill="rgb(0, 0, 0)" stroke="rgb(60, 60, 60)" stroke-width="1px" opacity="0.25"></line><line x1="0" y1="68.46153846153848" x2="280" y2="68.46153846153848" fill="rgb(0, 0, 0)" stroke="rgb(60, 60, 60)" stroke-width="1px" opacity="0.25"></line><line x1="0" y1="54.769230769230774" x2="280" y2="54.769230769230774" fill="rgb(0, 0, 0)" stroke="rgb(60, 60, 60)" stroke-width="1px" opacity="0.25"></line><line x1="0" y1="41.076923076923094" x2="280" y2="41.076923076923094" fill="rgb(0, 0, 0)" stroke="rgb(60, 60, 60)" stroke-width="1px" opacity="0.25"></line><line x1="0" y1="27.384615384615387" x2="280" y2="27.384615384615387" fill="rgb(0, 0, 0)" stroke="rgb(60, 60, 60)" stroke-width="1px" opacity="0.25"></line><line x1="0" y1="13.69230769230768" x2="280" y2="13.69230769230768" fill="rgb(0, 0, 0)" stroke="rgb(60, 60, 60)" stroke-width="1px" opacity="0.25"></line><line x1="0" y1="0" x2="280" y2="0" fill="rgb(0, 0, 0)" stroke="rgb(60, 60, 60)" stroke-width="1px" opacity="0.25"></line></g></g></g><g><g><line x1="0" y1="164.30769230769232" x2="280" y2="164.30769230769232" fill="rgb(0, 0, 0)" stroke="rgb(153, 153, 153)" stroke-width="1.5px"></line></g></g><g><g><line x1="23.333333333333332" y1="0" x2="23.333333333333332" y2="178" fill="rgb(0, 0, 0)" stroke="rgb(153, 153, 153)" stroke-width="1.5px"></line></g></g><g><g><g><g><g><path stroke="rgb(0, 153, 136)" stroke-width="2px" d="M23.333333333333332,140.29012114268085L24.5,130.25520765322906L25.666666666666664,130.76459419727325L26.833333333333336,124.62648848386911L28,122.48706540694604L29.166666666666668,116.3234884280425L30.333333333333336,118.69213657195752L31.5,117.26585588088403L32.666666666666664,110.64382876799658L33.833333333333336,112.85966156079219L35,110.92399228536166L36.16666666666667,104.93870192307693L37.333333333333336,103.41054433125717L38.5,102.4172384280425L39.666666666666664,100.63438450373137L40.833333333333336,95.69333441440877L42,94.08876710671646L43.16666666666667,92.33138852853043L44.33333333333333,92.12763472703787L45.5,88.6383325136625L46.666666666666664,93.80860766997705L47.833333333333336,91.31261135981634L49,88.10347674443173L50.166666666666664,90.93057502233066L51.33333333333333,89.04584827789894L52.5,85.0726328262916L53.66666666666667,85.7857711315155L54.833333333333336,82.22006328289325L56,83.82463059058557L57.166666666666664,83.2897748213548L58.333333333333336,80.02970583622272L59.5,79.62219823323764L60.66666666666667,74.70661940941446L61.83333333333333,74.78302504466131L63,74.40098054592426L64.16666666666666,72.84735576923077L65.33333333333333,72.94923266997705L66.5,67.65161750866818L67.66666666666667,71.67576733002298L68.83333333333333,66.60736907445468L70,68.31381328289325L71.16666666666666,65.86875950373138L72.33333333333334,66.14892710172214L73.5,62.914321220838104L74.66666666666667,64.84999049626865L75.83333333333333,62.914321220838104L77,65.81782513398392L78.16666666666667,58.68640943673941L79.33333333333333,61.6917902506315L80.5,61.97195784862225L81.66666666666667,62.88884995533871L82.83333333333333,63.95856149380025L84,62.659624888346755L85.16666666666666,59.95987477669351L86.33333333333334,60.596615607921905L87.5,58.96657703473019L88.66666666666666,56.19042128783008L89.83333333333334,56.41964635482202L91,60.4183249106774L92.16666666666667,57.79498859552237L93.33333333333333,53.898178779161896L94.5,55.75744241934558L95.66666666666667,53.43972864517801L96.83333333333333,52.19173457072333L98,51.17296556326059L99.16666666666667,48.626026722101074L100.33333333333333,54.203809481400725L101.5,53.312388640183684L102.66666666666666,48.19304785361658L103.83333333333334,49.313701923076934L105,50.53623289328357L106.16666666666666,49.69573826056262L107.33333333333334,48.957128689839294L108.5,49.82308642680829L109.66666666666667,50.33247093053964L110.83333333333333,49.364644454075744L112,47.556315183639526L113.16666666666667,49.05900559058557L114.33333333333333,46.84317687841562L115.5,44.270774933008056L116.66666666666667,46.18097294293918L117.83333333333333,45.41689210671646L119,43.7613904292767L120.16666666666666,43.353882826291596L121.33333333333334,43.78686169477609L122.5,42.81902705706085L123.66666666666666,42.74261326056262L124.83333333333334,42.717150156314574L126,41.953069320091856L127.16666666666667,43.58310789328357L128.33333333333331,43.15012902479907L129.5,41.7493155185993L130.66666666666666,46.13003857319174L131.83333333333334,46.18097294293918L133,41.16351721836972L134.16666666666669,40.9088290471297L135.33333333333334,41.596496086854216L136.5,37.82703443673941L137.66666666666666,40.19568258065442L138.83333333333334,38.438304002468385L140,36.85919979902414L141.16666666666666,40.2975594814007L142.33333333333331,37.59781753099881L143.5,41.341807915614226L144.66666666666669,36.93561359552237L145.83333333333334,38.84581160545349L147,39.380667374684236L148.16666666666666,36.60451162778412L149.33333333333334,35.381980657577515L150.5,35.127292486337495L151.66666666666666,37.139367397014894L152.83333333333331,38.361890205970155L154,36.88467106452353L155.16666666666669,36.324344029793366L156.33333333333334,34.61789982135477L157.5,35.78948826056259L158.66666666666666,34.770719253099884L159.83333333333331,34.31226911911597L161,35.63667699006888L162.16666666666669,34.23586348386911L163.33333333333334,34.87259615384613L164.5,33.54818828289325L165.66666666666666,33.72647898013773L166.83333333333334,35.432923188576325L168,34.59243671710672L169.16666666666666,32.58035364517798L170.33333333333331,34.3886829156142L171.5,33.19162321090698L172.66666666666669,33.777413349885194L173.83333333333334,31.510642106716432L175,32.402071109184845L176.16666666666666,32.096440406946016L177.33333333333331,33.06427504466129L178.5,31.510642106716432L179.66666666666669,31.867215339954072L180.83333333333334,32.1728460421929L182,30.721098166245667L183.16666666666666,31.38330210172211L184.33333333333334,30.084365496268617L185.5,30.8993807022388L186.66666666666666,32.453013640183656L187.83333333333331,32.402071109184845L189,31.3323595707233L190.16666666666669,31.026728868484497L191.33333333333334,31.026728868484497L192.5,30.007951699770416L193.66666666666666,30.8993807022388L194.83333333333331,30.364524933008028L196,29.473095930539642L197.16666666666669,30.23717676676236L198.33333333333334,29.60044409678531L199.5,29.524038461538453L200.66666666666666,29.29481339454651L201.83333333333334,30.8993807022388L203,31.561584637715242L204.16666666666666,29.29481339454651L205.33333333333331,30.61922126549939L206.5,31.28142520097586L207.66666666666669,29.702320997531586L208.83333333333334,30.033422965269807L210,28.759957625315735L211.16666666666666,29.727792263031006L212.33333333333331,27.919471153846132L213.5,29.29481339454651L214.66666666666669,29.727792263031006L215.83333333333334,30.135299866016084L217,28.759957625315735L218.16666666666666,28.93824016130887L219.33333333333334,28.046819320091828L220.5,28.93824016130887L221.66666666666666,29.880611694776093L222.83333333333331,29.473095930539642L224,28.530732558323763L225.16666666666669,28.70902325556827L226.33333333333334,28.097753689839266L227.5,28.276044387083772L228.66666666666666,28.276044387083772L229.83333333333331,27.741188617853L231,28.22510185608496L232.16666666666669,29.829669163777254L233.33333333333334,29.702320997531586L234.5,29.473095930539642L235.66666666666666,28.097753689839266L236.83333333333334,29.524038461538453L238,28.276044387083772L239.16666666666666,28.63260945907004L240.33333333333331,28.5816750893226L241.5,28.454326923076906L242.66666666666669,28.454326923076906L243.83333333333334,27.56289792060852L245,28.22510185608496L246.16666666666666,29.855140429276673L247.33333333333331,29.116530858553375L248.5,54.15287511165326L249.66666666666669,106.44139233002296L250.83333333333334,147.115900016748L252,143.57566343362515L253.16666666666666,142.4550134447905L254.33333333333334,143.01533843920782L255.5,143.5501942084386" style="fill: none;" fill="none"></path></g></g></g></g></g></g><g transform="translate(50, 178)" clip-path="url(#clip_1)"><clipPath id="clip_1"><rect width="280" height="21"></rect></clipPath><g><g><line x1="0" y1="0" x2="0" y2="5" style="visibility: inherit;" fill="rgb(0, 0, 0)" stroke="rgb(204, 204, 204)" stroke-width="1px"></line><line x1="23.333333333333332" y1="0" x2="23.333333333333332" y2="5" style="visibility: inherit;" fill="rgb(0, 0, 0)" stroke="rgb(204, 204, 204)" stroke-width="1px"></line><line x1="46.666666666666664" y1="0" x2="46.666666666666664" y2="5" style="visibility: inherit;" fill="rgb(0, 0, 0)" stroke="rgb(204, 204, 204)" stroke-width="1px"></line><line x1="70" y1="0" x2="70" y2="5" style="visibility: inherit;" fill="rgb(0, 0, 0)" stroke="rgb(204, 204, 204)" stroke-width="1px"></line><line x1="93.33333333333333" y1="0" x2="93.33333333333333" y2="5" style="visibility: inherit;" fill="rgb(0, 0, 0)" stroke="rgb(204, 204, 204)" stroke-width="1px"></line><line x1="116.66666666666667" y1="0" x2="116.66666666666667" y2="5" style="visibility: inherit;" fill="rgb(0, 0, 0)" stroke="rgb(204, 204, 204)" stroke-width="1px"></line><line x1="140" y1="0" x2="140" y2="5" style="visibility: inherit;" fill="rgb(0, 0, 0)" stroke="rgb(204, 204, 204)" stroke-width="1px"></line><line x1="163.33333333333334" y1="0" x2="163.33333333333334" y2="5" style="visibility: inherit;" fill="rgb(0, 0, 0)" stroke="rgb(204, 204, 204)" stroke-width="1px"></line><line x1="186.66666666666666" y1="0" x2="186.66666666666666" y2="5" style="visibility: inherit;" fill="rgb(0, 0, 0)" stroke="rgb(204, 204, 204)" stroke-width="1px"></line><line x1="210" y1="0" x2="210" y2="5" style="visibility: inherit;" fill="rgb(0, 0, 0)" stroke="rgb(204, 204, 204)" stroke-width="1px"></line><line x1="233.33333333333334" y1="0" x2="233.33333333333334" y2="5" style="visibility: inherit;" fill="rgb(0, 0, 0)" stroke="rgb(204, 204, 204)" stroke-width="1px"></line><line x1="256.66666666666663" y1="0" x2="256.66666666666663" y2="5" style="visibility: inherit;" fill="rgb(0, 0, 0)" stroke="rgb(204, 204, 204)" stroke-width="1px"></line><line x1="280" y1="0" x2="280" y2="5" style="visibility: inherit;" fill="rgb(0, 0, 0)" stroke="rgb(204, 204, 204)" stroke-width="1px"></line></g><g transform="translate(0, 8)"><text x="0" y="0" dx="0em" dy="0.95em" style="text-anchor: middle; visibility: hidden; font-family: &quot;Helvetica Neue&quot;, sans-serif; font-size: 12px; font-weight: 200;" fill="rgb(50, 49, 63)" stroke="none" stroke-width="1px">-20</text><text x="23.333333333333332" y="0" dx="0em" dy="0.95em" style="text-anchor: middle; visibility: inherit; font-family: &quot;Helvetica Neue&quot;, sans-serif; font-size: 12px; font-weight: 200;" fill="rgb(50, 49, 63)" stroke="none" stroke-width="1px">0</text><text x="46.666666666666664" y="0" dx="0em" dy="0.95em" style="text-anchor: middle; visibility: hidden; font-family: &quot;Helvetica Neue&quot;, sans-serif; font-size: 12px; font-weight: 200;" fill="rgb(50, 49, 63)" stroke="none" stroke-width="1px">20</text><text x="70" y="0" dx="0em" dy="0.95em" style="text-anchor: middle; visibility: inherit; font-family: &quot;Helvetica Neue&quot;, sans-serif; font-size: 12px; font-weight: 200;" fill="rgb(50, 49, 63)" stroke="none" stroke-width="1px">40</text><text x="93.33333333333333" y="0" dx="0em" dy="0.95em" style="text-anchor: middle; visibility: hidden; font-family: &quot;Helvetica Neue&quot;, sans-serif; font-size: 12px; font-weight: 200;" fill="rgb(50, 49, 63)" stroke="none" stroke-width="1px">60</text><text x="116.66666666666667" y="0" dx="0em" dy="0.95em" style="text-anchor: middle; visibility: inherit; font-family: &quot;Helvetica Neue&quot;, sans-serif; font-size: 12px; font-weight: 200;" fill="rgb(50, 49, 63)" stroke="none" stroke-width="1px">80</text><text x="140" y="0" dx="0em" dy="0.95em" style="text-anchor: middle; visibility: hidden; font-family: &quot;Helvetica Neue&quot;, sans-serif; font-size: 12px; font-weight: 200;" fill="rgb(50, 49, 63)" stroke="none" stroke-width="1px">100</text><text x="163.33333333333334" y="0" dx="0em" dy="0.95em" style="text-anchor: middle; visibility: inherit; font-family: &quot;Helvetica Neue&quot;, sans-serif; font-size: 12px; font-weight: 200;" fill="rgb(50, 49, 63)" stroke="none" stroke-width="1px">120</text><text x="186.66666666666666" y="0" dx="0em" dy="0.95em" style="text-anchor: middle; visibility: hidden; font-family: &quot;Helvetica Neue&quot;, sans-serif; font-size: 12px; font-weight: 200;" fill="rgb(50, 49, 63)" stroke="none" stroke-width="1px">140</text><text x="210" y="0" dx="0em" dy="0.95em" style="text-anchor: middle; visibility: inherit; font-family: &quot;Helvetica Neue&quot;, sans-serif; font-size: 12px; font-weight: 200;" fill="rgb(50, 49, 63)" stroke="none" stroke-width="1px">160</text><text x="233.33333333333334" y="0" dx="0em" dy="0.95em" style="text-anchor: middle; visibility: hidden; font-family: &quot;Helvetica Neue&quot;, sans-serif; font-size: 12px; font-weight: 200;" fill="rgb(50, 49, 63)" stroke="none" stroke-width="1px">180</text><text x="256.66666666666663" y="0" dx="0em" dy="0.95em" style="text-anchor: middle; visibility: inherit; font-family: &quot;Helvetica Neue&quot;, sans-serif; font-size: 12px; font-weight: 200;" fill="rgb(50, 49, 63)" stroke="none" stroke-width="1px">200</text><text x="280" y="0" dx="0em" dy="0.95em" style="text-anchor: middle; visibility: hidden; font-family: &quot;Helvetica Neue&quot;, sans-serif; font-size: 12px; font-weight: 200;" fill="rgb(50, 49, 63)" stroke="none" stroke-width="1px">220</text></g><line x1="0" y1="0" x2="280" y2="0" fill="rgb(0, 0, 0)" stroke="rgb(204, 204, 204)" stroke-width="1px"></line></g></g></g></g></svg>