<svg viewBox="0 0 330 200" xmlns="http://www.w3.org/2000/svg"><g><g><g><g><g><line x1="50" y1="178" x2="45" y2="178" style="visibility: inherit;" fill="rgb(0, 0, 0)" stroke="rgb(204, 204, 204)" stroke-width="1px"></line><line x1="50" y1="161.8181818181818" x2="45" y2="161.8181818181818" style="visibility: inherit;" fill="rgb(0, 0, 0)" stroke="rgb(204, 204, 204)" stroke-width="1px"></line><line x1="50" y1="145.63636363636363" x2="45" y2="145.63636363636363" style="visibility: inherit;" fill="rgb(0, 0, 0)" stroke="rgb(204, 204, 204)" stroke-width="1px"></line><line x1="50" y1="129.45454545454544" x2="45" y2="129.45454545454544" style="visibility: inherit;" fill="rgb(0, 0, 0)" stroke="rgb(204, 204, 204)" stroke-width="1px"></line><line x1="50" y1="113.27272727272727" x2="45" y2="113.27272727272727" style="visibility: inherit;" fill="rgb(0, 0, 0)" stroke="rgb(204, 204, 204)" stroke-width="1px"></line><line x1="50" y1="97.0909090909091" x2="45" y2="97.0909090909091" style="visibility: inherit;" fill="rgb(0, 0, 0)" stroke="rgb(204, 204, 204)" stroke-width="1px"></line><line x1="50" y1="80.90909090909092" x2="45" y2="80.90909090909092" style="visibility: inherit;" fill="rgb(0, 0, 0)" stroke="rgb(204, 204, 204)" stroke-width="1px"></line><line x1="50" y1="64.72727272727275" x2="45" y2="64.72727272727275" style="visibility: inherit;" fill="rgb(0, 0, 0)" stroke="rgb(204, 204, 204)" stroke-width="1px"></line><line x1="50" y1="48.54545454545456" x2="45" y2="48.54545454545456" style="visibility: inherit;" fill="rgb(0, 0, 0)" stroke="rgb(204, 204, 204)" stroke-width="1px"></line><line x1="50" y1="32.363636363636374" x2="45" y2="32.363636363636374" style="visibility: inherit;" fill="rgb(0, 0, 0)" stroke="rgb(204, 204, 204)" stroke-width="1px"></line><line x1="50" y1="16.181818181818187" x2="45" y2="16.181818181818187" style="visibility: inherit;" fill="rgb(0, 0, 0)" stroke="rgb(204, 204, 204)" stroke-width="1px"></line><line x1="50" y1="0" x2="45" y2="0" style="visibility: inherit;" fill="rgb(0, 0, 0)" stroke="rgb(204, 204, 204)" stroke-width="1px"></line></g><g transform="translate(40, 0)"><text x="0" y="178" dx="0em" dy="0.3em" style="text-anchor: end; visibility: hidden; font-family: &quot;Helvetica Neue&quot;, sans-serif; font-size: 12px; font-weight: 200;" fill="rgb(50, 49, 63)" stroke="none" stroke-width="1px">-0.1</text><text x="0" y="161.8181818181818" dx="0em" dy="0.3em" style="text-anchor: end; visibility: inherit; font-family: &quot;Helvetica Neue&quot;, sans-serif; font-size: 12px; font-weight: 200;" fill="rgb(50, 49, 63)" stroke="none" stroke-width="1px">0</text><text x="0" y="145.63636363636363" dx="0em" dy="0.3em" style="text-anchor: end; visibility: hidden; font-family: &quot;Helvetica Neue&quot;, sans-serif; font-size: 12px; font-weight: 200;" fill="rgb(50, 49, 63)" stroke="none" stroke-width="1px">0.1</text><text x="0" y="129.45454545454544" dx="0em" dy="0.3em" style="text-anchor: end; visibility: inherit; font-family: &quot;Helvetica Neue&quot;, sans-serif; font-size: 12px; font-weight: 200;" fill="rgb(50, 49, 63)" stroke="none" stroke-width="1px">0.2</text><text x="0" y="113.27272727272727" dx="0em" dy="0.3em" style="text-anchor: end; visibility: hidden; font-family: &quot;Helvetica Neue&quot;, sans-serif; font-size: 12px; font-weight: 200;" fill="rgb(50, 49, 63)" stroke="none" stroke-width="1px">0.3</text><text x="0" y="97.0909090909091" dx="0em" dy="0.3em" style="text-anchor: end; visibility: inherit; font-family: &quot;Helvetica Neue&quot;, sans-serif; font-size: 12px; font-weight: 200;" fill="rgb(50, 49, 63)" stroke="none" stroke-width="1px">0.4</text><text x="0" y="80.90909090909092" dx="0em" dy="0.3em" style="text-anchor: end; visibility: hidden; font-family: &quot;Helvetica Neue&quot;, sans-serif; font-size: 12px; font-weight: 200;" fill="rgb(50, 49, 63)" stroke="none" stroke-width="1px">0.5</text><text x="0" y="64.72727272727275" dx="0em" dy="0.3em" style="text-anchor: end; visibility: inherit; font-family: &quot;Helvetica Neue&quot;, sans-serif; font-size: 12px; font-weight: 200;" fill="rgb(50, 49, 63)" stroke="none" stroke-width="1px">0.6</text><text x="0" y="48.54545454545456" dx="0em" dy="0.3em" style="text-anchor: end; visibility: hidden; font-family: &quot;Helvetica Neue&quot;, sans-serif; font-size: 12px; font-weight: 200;" fill="rgb(50, 49, 63)" stroke="none" stroke-width="1px">0.7</text><text x="0" y="32.363636363636374" dx="0em" dy="0.3em" style="text-anchor: end; visibility: inherit; font-family: &quot;Helvetica Neue&quot;, sans-serif; font-size: 12px; font-weight: 200;" fill="rgb(50, 49, 63)" stroke="none" stroke-width="1px">0.8</text><text x="0" y="16.181818181818187" dx="0em" dy="0.3em" style="text-anchor: end; visibility: hidden; font-family: &quot;Helvetica Neue&quot;, sans-serif; font-size: 12px; font-weight: 200;" fill="rgb(50, 49, 63)" stroke="none" stroke-width="1px">0.9</text><text x="0" y="0" dx="0em" dy="0.3em" style="text-anchor: end; visibility: hidden; font-family: &quot;Helvetica Neue&quot;, sans-serif; font-size: 12px; font-weight: 200;" fill="rgb(50, 49, 63)" stroke="none" stroke-width="1px">1</text></g><line x1="50" y1="0" x2="50" y2="178" fill="rgb(0, 0, 0)" stroke="rgb(204, 204, 204)" stroke-width="1px"></line></g></g><g transform="translate(50, 0)" clip-path="url(#clip_0)"><clipPath id="clip_0"><rect width="280" height="177"></rect></clipPath><g><g><g><line x1="0" y1="0" x2="0" y2="178" fill="rgb(0, 0, 0)" stroke="rgb(60, 60, 60)" stroke-width="1px" opacity="0.25"></line><line x1="23.333333333333332" y1="0" x2="23.333333333333332" y2="178" fill="rgb(0, 0, 0)" stroke="rgb(60, 60, 60)" stroke-width="1px" opacity="0.25"></line><line x1="46.666666666666664" y1="0" x2="46.666666666666664" y2="178" fill="rgb(0, 0, 0)" stroke="rgb(60, 60, 60)" stroke-width="1px" opacity="0.25"></line><line x1="70" y1="0" x2="70" y2="178" fill="rgb(0, 0, 0)" stroke="rgb(60, 60, 60)" stroke-width="1px" opacity="0.25"></line><line x1="93.33333333333333" y1="0" x2="93.33333333333333" y2="178" fill="rgb(0, 0, 0)" stroke="rgb(60, 60, 60)" stroke-width="1px" opacity="0.25"></line><line x1="116.66666666666667" y1="0" x2="116.66666666666667" y2="178" fill="rgb(0, 0, 0)" stroke="rgb(60, 60, 60)" stroke-width="1px" opacity="0.25"></line><line x1="140" y1="0" x2="140" y2="178" fill="rgb(0, 0, 0)" stroke="rgb(60, 60, 60)" stroke-width="1px" opacity="0.25"></line><line x1="163.33333333333334" y1="0" x2="163.33333333333334" y2="178" fill="rgb(0, 0, 0)" stroke="rgb(60, 60, 60)" stroke-width="1px" opacity="0.25"></line><line x1="186.66666666666666" y1="0" x2="186.66666666666666" y2="178" fill="rgb(0, 0, 0)" stroke="rgb(60, 60, 60)" stroke-width="1px" opacity="0.25"></line><line x1="210" y1="0" x2="210" y2="178" fill="rgb(0, 0, 0)" stroke="rgb(60, 60, 60)" stroke-width="1px" opacity="0.25"></line><line x1="233.33333333333334" y1="0" x2="233.33333333333334" y2="178" fill="rgb(0, 0, 0)" stroke="rgb(60, 60, 60)" stroke-width="1px" opacity="0.25"></line><line x1="256.66666666666663" y1="0" x2="256.66666666666663" y2="178" fill="rgb(0, 0, 0)" stroke="rgb(60, 60, 60)" stroke-width="1px" opacity="0.25"></line><line x1="280" y1="0" x2="280" y2="178" fill="rgb(0, 0, 0)" stroke="rgb(60, 60, 60)" stroke-width="1px" opacity="0.25"></line></g><g><line x1="0" y1="178" x2="280" y2="178" fill="rgb(0, 0, 0)" stroke="rgb(60, 60, 60)" stroke-width="1px" opacity="0.25"></line><line x1="0" y1="161.8181818181818" x2="280" y2="161.8181818181818" fill="rgb(0, 0, 0)" stroke="rgb(60, 60, 60)" stroke-width="1px" opacity="0.25"></line><line x1="0" y1="145.63636363636363" x2="280" y2="145.63636363636363" fill="rgb(0, 0, 0)" stroke="rgb(60, 60, 60)" stroke-width="1px" opacity="0.25"></line><line x1="0" y1="129.45454545454544" x2="280" y2="129.45454545454544" fill="rgb(0, 0, 0)" stroke="rgb(60, 60, 60)" stroke-width="1px" opacity="0.25"></line><line x1="0" y1="113.27272727272727" x2="280" y2="113.27272727272727" fill="rgb(0, 0, 0)" stroke="rgb(60, 60, 60)" stroke-width="1px" opacity="0.25"></line><line x1="0" y1="97.0909090909091" x2="280" y2="97.0909090909091" fill="rgb(0, 0, 0)" stroke="rgb(60, 60, 60)" stroke-width="1px" opacity="0.25"></line><line x1="0" y1="80.90909090909092" x2="280" y2="80.90909090909092" fill="rgb(0, 0, 0)" stroke="rgb(60, 60, 60)" stroke-width="1px" opacity="0.25"></line><line x1="0" y1="64.72727272727275" x2="280" y2="64.72727272727275" fill="rgb(0, 0, 0)" stroke="rgb(60, 60, 60)" stroke-width="1px" opacity="0.25"></line><line x1="0" y1="48.54545454545456" x2="280" y2="48.54545454545456" fill="rgb(0, 0, 0)" stroke="rgb(60, 60, 60)" stroke-width="1px" opacity="0.25"></line><line x1="0" y1="32.363636363636374" x2="280" y2="32.363636363636374" fill="rgb(0, 0, 0)" stroke="rgb(60, 60, 60)" stroke-width="1px" opacity="0.25"></line><line x1="0" y1="16.181818181818187" x2="280" y2="16.181818181818187" fill="rgb(0, 0, 0)" stroke="rgb(60, 60, 60)" stroke-width="1px" opacity="0.25"></line><line x1="0" y1="0" x2="280" y2="0" fill="rgb(0, 0, 0)" stroke="rgb(60, 60, 60)" stroke-width="1px" opacity="0.25"></line></g></g></g><g><g><line x1="0" y1="161.8181818181818" x2="280" y2="161.8181818181818" fill="rgb(0, 0, 0)" stroke="rgb(153, 153, 153)" stroke-width="1.5px"></line></g></g><g><g><line x1="23.333333333333332" y1="0" x2="23.333333333333332" y2="178" fill="rgb(0, 0, 0)" stroke="rgb(153, 153, 153)" stroke-width="1.5px"></line></g></g><g><g><g><g><g><path stroke="rgb(0, 153, 136)" stroke-width="2px" d="M23.333333333333332,120.21403507752854L24.5,109.65625562451103L25.666666666666664,108.01256401972338L26.833333333333336,112.26493136449294L28,117.78818731958216L29.166666666666668,110.61410719698127L30.333333333333336,108.39963213963942L31.5,108.25426096265967L32.666666666666664,106.70867464759134L33.833333333333336,107.39450985735114L35,106.1307538097555L36.16666666666667,105.77311775901101L37.333333333333336,105.84981571544301L38.5,106.27790933305567L39.666666666666664,104.60122178901327L40.833333333333336,105.20768252286045L42,104.02686482126063L43.16666666666667,104.65027202259411L44.33333333333333,103.64693408662623L45.5,104.0393504229459L46.666666666666664,103.81906563585456L47.833333333333336,104.15707869963214L49,103.93054387786172L50.166666666666664,103.6942047964443L51.33333333333333,103.74593154950576L52.5,103.51404851133174L53.66666666666667,103.62107071009551L54.833333333333336,102.67481256615032L56,103.15106424418364L57.166666666666664,103.65228712558748L58.333333333333336,102.97090795907108L59.5,101.49310751394793L60.66666666666667,100.14461912892082L61.83333333333333,99.70582907850093L63,98.69892244989222L64.16666666666666,98.54909040711144L65.33333333333333,100.78318845142019L66.5,104.12675445730036L67.66666666666667,102.93880419297652L68.83333333333333,103.31873492761092L70,101.44672897729008L71.16666666666666,98.91385902057995L72.33333333333334,98.54819823395123L73.5,98.3885571089658L74.66666666666667,100.89288716966456L75.83333333333333,103.34549047730187L77,102.20391392707826L78.16666666666667,101.77582513202321L79.33333333333333,100.16870298168877L80.5,98.44028386202727L81.66666666666667,96.22937749732625L82.83333333333333,99.36157080260192L84,112.03661701895975L85.16666666666666,106.69083600694483L86.33333333333334,105.01236411658202L87.5,103.40702631256798L88.66666666666666,103.16533419218932L89.83333333333334,102.10580863735893L91,100.69132837382232L92.16666666666667,102.84872363914144L93.33333333333333,101.34594716809013L94.5,100.81797355955298L95.66666666666667,98.6159792813388L96.83333333333333,97.54842899062417L98,97.65545118938793L99.16666666666667,96.25434870069678L100.33333333333333,98.07195137847555L101.5,95.42314231395723L102.66666666666666,92.0171434770931L103.83333333333334,93.73485651883213L105,97.1158793297681L106.16666666666666,92.07511544227602L107.33333333333334,90.6106879494407L108.5,90.28694483366881L109.66666666666667,88.44169925559652L110.83333333333333,88.42742930759084L112,88.25886645100336L113.16666666666667,87.32063786550003L114.33333333333333,86.54561427506535L115.5,88.13757430423391L116.66666666666667,86.25397974794562L117.83333333333333,85.26848045262425L119,84.93224691260946L120.16666666666666,83.04865235632117L121.33333333333334,81.43350064754488L122.5,81.08032546260141L123.66666666666666,80.05648201162165L124.83333333333334,88.0403660102324L126,79.42682959816675L127.16666666666667,76.78337357260966L128.33333333333331,75.62485055489975L129.5,73.51560852744365L130.66666666666666,76.08683228492738L131.83333333333334,75.38315361196345L133,70.67059852860193L134.16666666666669,73.01706216552043L135.33333333333334,71.49288318373942L136.5,71.47148067300971L137.66666666666666,68.9555620063435L138.83333333333334,65.59683387929744L140,68.590793392875L141.16666666666666,64.68891989101064L142.33333333333331,64.3928244980899L143.5,62.95159350741994L144.66666666666669,62.506558244878605L145.83333333333334,61.3096862489527L147,61.8644154071808L148.16666666666666,60.28315663337709L149.33333333333334,61.18303624066441L150.5,59.96744307604705L151.66666666666666,58.1159474632957L152.83333333333331,57.86088239062917L154,59.072906862605706L155.16666666666669,60.508794459429666L156.33333333333334,56.81384726004167L157.5,57.8885252909227L158.66666666666666,56.42677914012563L159.83333333333331,57.33558047901501L161,55.96746910702099L162.16666666666669,55.03726525740193L163.33333333333334,56.13513979044829L164.5,55.29322732578625L165.66666666666666,56.13246809352529L166.83333333333334,54.284541173414766L168,53.5425231673501L169.16666666666666,54.03838818723506L170.33333333333331,53.794916543093606L171.5,52.98243132504551L172.66666666666669,54.621666886589765L173.83333333333334,53.85199633511631L175,51.07743425802754L176.16666666666666,51.45736499266194L177.33333333333331,53.069835359399974L178.5,51.93985223770143L179.66666666666669,49.143000299280345L180.83333333333334,44.782713760029196L182,47.11670626293531L183.16666666666666,48.64177259531888L184.33333333333334,44.48929970914668L185.5,42.239152193069486L186.66666666666666,39.63403550061312L187.83333333333331,41.29467357288709L189,43.72408520091665L190.16666666666669,40.32433639873159L191.33333333333334,40.414412130009055L192.5,38.6984786120328L193.66666666666666,39.088228073987096L194.83333333333331,48.25648882172325L196,37.782549532977015L197.16666666666669,38.836722048846156L198.33333333333334,38.98654926906934L199.5,38.509405417875826L200.66666666666666,36.766725995323895L201.83333333333334,36.5080825849013L203,36.640972982753425L204.16666666666666,36.365392749959796L205.33333333333331,35.187251567840605L206.5,42.42911273782906L207.66666666666669,56.94584066217597L208.83333333333334,40.74618480422282L210,35.58591311628169L211.16666666666666,34.82962033965373L212.33333333333331,34.536196643655956L213.5,32.67489194869998L214.66666666666669,33.34467768669131L215.83333333333334,34.443439570340246L217,34.16964368386704L218.16666666666666,33.96897706118497L219.33333333333334,31.942683024839937L220.5,39.91408142176542L221.66666666666666,36.0282670367848L222.83333333333331,33.88602907007393L224,34.31858355348763L225.16666666666669,36.07018470764163L226.33333333333334,32.64278336004779L227.5,35.069523291154354L228.66666666666666,31.957845146005837L229.83333333333331,32.456391507929055L231,39.33526841076937L232.16666666666669,87.78529129245065L233.33333333333334,90.92551415616818L234.5,119.35161227529699L235.66666666666666,119.4292024048892L236.83333333333334,116.24171365391126L238,113.60271367159758L239.16666666666666,111.63973981683905L240.33333333333331,109.66606470671569L241.5,108.30777206204155L242.66666666666669,107.8636241501028L243.83333333333334,108.02237792448565L245,106.94501372900878L246.16666666666666,106.43844263120131L247.33333333333331,105.98983867601916L248.5,104.56376498395747L249.66666666666669,104.3033420497721L250.83333333333334,104.76888764988293L252,105.0676595622843L253.16666666666666,103.01817866888915L254.33333333333334,102.25474850697951L255.5,101.11585329879415" style="fill: none;" fill="none"></path></g></g></g></g></g></g><g transform="translate(50, 178)" clip-path="url(#clip_1)"><clipPath id="clip_1"><rect width="280" height="21"></rect></clipPath><g><g><line x1="0" y1="0" x2="0" y2="5" style="visibility: inherit;" fill="rgb(0, 0, 0)" stroke="rgb(204, 204, 204)" stroke-width="1px"></line><line x1="23.333333333333332" y1="0" x2="23.333333333333332" y2="5" style="visibility: inherit;" fill="rgb(0, 0, 0)" stroke="rgb(204, 204, 204)" stroke-width="1px"></line><line x1="46.666666666666664" y1="0" x2="46.666666666666664" y2="5" style="visibility: inherit;" fill="rgb(0, 0, 0)" stroke="rgb(204, 204, 204)" stroke-width="1px"></line><line x1="70" y1="0" x2="70" y2="5" style="visibility: inherit;" fill="rgb(0, 0, 0)" stroke="rgb(204, 204, 204)" stroke-width="1px"></line><line x1="93.33333333333333" y1="0" x2="93.33333333333333" y2="5" style="visibility: inherit;" fill="rgb(0, 0, 0)" stroke="rgb(204, 204, 204)" stroke-width="1px"></line><line x1="116.66666666666667" y1="0" x2="116.66666666666667" y2="5" style="visibility: inherit;" fill="rgb(0, 0, 0)" stroke="rgb(204, 204, 204)" stroke-width="1px"></line><line x1="140" y1="0" x2="140" y2="5" style="visibility: inherit;" fill="rgb(0, 0, 0)" stroke="rgb(204, 204, 204)" stroke-width="1px"></line><line x1="163.33333333333334" y1="0" x2="163.33333333333334" y2="5" style="visibility: inherit;" fill="rgb(0, 0, 0)" stroke="rgb(204, 204, 204)" stroke-width="1px"></line><line x1="186.66666666666666" y1="0" x2="186.66666666666666" y2="5" style="visibility: inherit;" fill="rgb(0, 0, 0)" stroke="rgb(204, 204, 204)" stroke-width="1px"></line><line x1="210" y1="0" x2="210" y2="5" style="visibility: inherit;" fill="rgb(0, 0, 0)" stroke="rgb(204, 204, 204)" stroke-width="1px"></line><line x1="233.33333333333334" y1="0" x2="233.33333333333334" y2="5" style="visibility: inherit;" fill="rgb(0, 0, 0)" stroke="rgb(204, 204, 204)" stroke-width="1px"></line><line x1="256.66666666666663" y1="0" x2="256.66666666666663" y2="5" style="visibility: inherit;" fill="rgb(0, 0, 0)" stroke="rgb(204, 204, 204)" stroke-width="1px"></line><line x1="280" y1="0" x2="280" y2="5" style="visibility: inherit;" fill="rgb(0, 0, 0)" stroke="rgb(204, 204, 204)" stroke-width="1px"></line></g><g transform="translate(0, 8)"><text x="0" y="0" dx="0em" dy="0.95em" style="text-anchor: middle; visibility: hidden; font-family: &quot;Helvetica Neue&quot;, sans-serif; font-size: 12px; font-weight: 200;" fill="rgb(50, 49, 63)" stroke="none" stroke-width="1px">-20</text><text x="23.333333333333332" y="0" dx="0em" dy="0.95em" style="text-anchor: middle; visibility: inherit; font-family: &quot;Helvetica Neue&quot;, sans-serif; font-size: 12px; font-weight: 200;" fill="rgb(50, 49, 63)" stroke="none" stroke-width="1px">0</text><text x="46.666666666666664" y="0" dx="0em" dy="0.95em" style="text-anchor: middle; visibility: hidden; font-family: &quot;Helvetica Neue&quot;, sans-serif; font-size: 12px; font-weight: 200;" fill="rgb(50, 49, 63)" stroke="none" stroke-width="1px">20</text><text x="70" y="0" dx="0em" dy="0.95em" style="text-anchor: middle; visibility: inherit; font-family: &quot;Helvetica Neue&quot;, sans-serif; font-size: 12px; font-weight: 200;" fill="rgb(50, 49, 63)" stroke="none" stroke-width="1px">40</text><text x="93.33333333333333" y="0" dx="0em" dy="0.95em" style="text-anchor: middle; visibility: hidden; font-family: &quot;Helvetica Neue&quot;, sans-serif; font-size: 12px; font-weight: 200;" fill="rgb(50, 49, 63)" stroke="none" stroke-width="1px">60</text><text x="116.66666666666667" y="0" dx="0em" dy="0.95em" style="text-anchor: middle; visibility: inherit; font-family: &quot;Helvetica Neue&quot;, sans-serif; font-size: 12px; font-weight: 200;" fill="rgb(50, 49, 63)" stroke="none" stroke-width="1px">80</text><text x="140" y="0" dx="0em" dy="0.95em" style="text-anchor: middle; visibility: hidden; font-family: &quot;Helvetica Neue&quot;, sans-serif; font-size: 12px; font-weight: 200;" fill="rgb(50, 49, 63)" stroke="none" stroke-width="1px">100</text><text x="163.33333333333334" y="0" dx="0em" dy="0.95em" style="text-anchor: middle; visibility: inherit; font-family: &quot;Helvetica Neue&quot;, sans-serif; font-size: 12px; font-weight: 200;" fill="rgb(50, 49, 63)" stroke="none" stroke-width="1px">120</text><text x="186.66666666666666" y="0" dx="0em" dy="0.95em" style="text-anchor: middle; visibility: hidden; font-family: &quot;Helvetica Neue&quot;, sans-serif; font-size: 12px; font-weight: 200;" fill="rgb(50, 49, 63)" stroke="none" stroke-width="1px">140</text><text x="210" y="0" dx="0em" dy="0.95em" style="text-anchor: middle; visibility: inherit; font-family: &quot;Helvetica Neue&quot;, sans-serif; font-size: 12px; font-weight: 200;" fill="rgb(50, 49, 63)" stroke="none" stroke-width="1px">160</text><text x="233.33333333333334" y="0" dx="0em" dy="0.95em" style="text-anchor: middle; visibility: hidden; font-family: &quot;Helvetica Neue&quot;, sans-serif; font-size: 12px; font-weight: 200;" fill="rgb(50, 49, 63)" stroke="none" stroke-width="1px">180</text><text x="256.66666666666663" y="0" dx="0em" dy="0.95em" style="text-anchor: middle; visibility: inherit; font-family: &quot;Helvetica Neue&quot;, sans-serif; font-size: 12px; font-weight: 200;" fill="rgb(50, 49, 63)" stroke="none" stroke-width="1px">200</text><text x="280" y="0" dx="0em" dy="0.95em" style="text-anchor: middle; visibility: hidden; font-family: &quot;Helvetica Neue&quot;, sans-serif; font-size: 12px; font-weight: 200;" fill="rgb(50, 49, 63)" stroke="none" stroke-width="1px">220</text></g><line x1="0" y1="0" x2="280" y2="0" fill="rgb(0, 0, 0)" stroke="rgb(204, 204, 204)" stroke-width="1px"></line></g></g></g></g></svg>