<svg viewBox="0 0 330 200" xmlns="http://www.w3.org/2000/svg"><g><g><g><g><g><line x1="40" y1="164.79702888301603" x2="35" y2="164.79702888301603" style="visibility: inherit;" fill="rgb(0, 0, 0)" stroke="rgb(204, 204, 204)" stroke-width="1px"></line><line x1="40" y1="144.35019816406881" x2="35" y2="144.35019816406881" style="visibility: inherit;" fill="rgb(0, 0, 0)" stroke="rgb(204, 204, 204)" stroke-width="1px"></line><line x1="40" y1="123.90336744512157" x2="35" y2="123.90336744512157" style="visibility: inherit;" fill="rgb(0, 0, 0)" stroke="rgb(204, 204, 204)" stroke-width="1px"></line><line x1="40" y1="103.45653672617435" x2="35" y2="103.45653672617435" style="visibility: inherit;" fill="rgb(0, 0, 0)" stroke="rgb(204, 204, 204)" stroke-width="1px"></line><line x1="40" y1="83.00970600722712" x2="35" y2="83.00970600722712" style="visibility: inherit;" fill="rgb(0, 0, 0)" stroke="rgb(204, 204, 204)" stroke-width="1px"></line><line x1="40" y1="62.56287528827988" x2="35" y2="62.56287528827988" style="visibility: inherit;" fill="rgb(0, 0, 0)" stroke="rgb(204, 204, 204)" stroke-width="1px"></line><line x1="40" y1="42.11604456933267" x2="35" y2="42.11604456933267" style="visibility: inherit;" fill="rgb(0, 0, 0)" stroke="rgb(204, 204, 204)" stroke-width="1px"></line><line x1="40" y1="21.669213850385432" x2="35" y2="21.669213850385432" style="visibility: inherit;" fill="rgb(0, 0, 0)" stroke="rgb(204, 204, 204)" stroke-width="1px"></line><line x1="40" y1="1.222383131438221" x2="35" y2="1.222383131438221" style="visibility: inherit;" fill="rgb(0, 0, 0)" stroke="rgb(204, 204, 204)" stroke-width="1px"></line></g><g transform="translate(30, 0)"><text x="0" y="164.79702888301603" dx="0em" dy="0.3em" style="text-anchor: end; visibility: inherit; font-family: &quot;Helvetica Neue&quot;, sans-serif; font-size: 12px; font-weight: 200;" fill="rgb(50, 49, 63)" stroke="none" stroke-width="1px">1.2</text><text x="0" y="144.35019816406881" dx="0em" dy="0.3em" style="text-anchor: end; visibility: hidden; font-family: &quot;Helvetica Neue&quot;, sans-serif; font-size: 12px; font-weight: 200;" fill="rgb(50, 49, 63)" stroke="none" stroke-width="1px">1.4</text><text x="0" y="123.90336744512157" dx="0em" dy="0.3em" style="text-anchor: end; visibility: inherit; font-family: &quot;Helvetica Neue&quot;, sans-serif; font-size: 12px; font-weight: 200;" fill="rgb(50, 49, 63)" stroke="none" stroke-width="1px">1.6</text><text x="0" y="103.45653672617435" dx="0em" dy="0.3em" style="text-anchor: end; visibility: hidden; font-family: &quot;Helvetica Neue&quot;, sans-serif; font-size: 12px; font-weight: 200;" fill="rgb(50, 49, 63)" stroke="none" stroke-width="1px">1.8</text><text x="0" y="83.00970600722712" dx="0em" dy="0.3em" style="text-anchor: end; visibility: inherit; font-family: &quot;Helvetica Neue&quot;, sans-serif; font-size: 12px; font-weight: 200;" fill="rgb(50, 49, 63)" stroke="none" stroke-width="1px">2</text><text x="0" y="62.56287528827988" dx="0em" dy="0.3em" style="text-anchor: end; visibility: hidden; font-family: &quot;Helvetica Neue&quot;, sans-serif; font-size: 12px; font-weight: 200;" fill="rgb(50, 49, 63)" stroke="none" stroke-width="1px">2.2</text><text x="0" y="42.11604456933267" dx="0em" dy="0.3em" style="text-anchor: end; visibility: inherit; font-family: &quot;Helvetica Neue&quot;, sans-serif; font-size: 12px; font-weight: 200;" fill="rgb(50, 49, 63)" stroke="none" stroke-width="1px">2.4</text><text x="0" y="21.669213850385432" dx="0em" dy="0.3em" style="text-anchor: end; visibility: hidden; font-family: &quot;Helvetica Neue&quot;, sans-serif; font-size: 12px; font-weight: 200;" fill="rgb(50, 49, 63)" stroke="none" stroke-width="1px">2.6</text><text x="0" y="1.222383131438221" dx="0em" dy="0.3em" style="text-anchor: end; visibility: hidden; font-family: &quot;Helvetica Neue&quot;, sans-serif; font-size: 12px; font-weight: 200;" fill="rgb(50, 49, 63)" stroke="none" stroke-width="1px">2.8</text></g><line x1="40" y1="0" x2="40" y2="178" fill="rgb(0, 0, 0)" stroke="rgb(204, 204, 204)" stroke-width="1px"></line></g></g><g transform="translate(40, 0)" clip-path="url(#clip_0)"><clipPath id="clip_0"><rect width="290" height="177"></rect></clipPath><g><g><g><line x1="3.2193930136812394" y1="0" x2="3.2193930136812394" y2="178" fill="rgb(0, 0, 0)" stroke="rgb(60, 60, 60)" stroke-width="1px" opacity="0.25"></line><line x1="37.91965582088333" y1="0" x2="37.91965582088333" y2="178" fill="rgb(0, 0, 0)" stroke="rgb(60, 60, 60)" stroke-width="1px" opacity="0.25"></line><line x1="72.61991862808541" y1="0" x2="72.61991862808541" y2="178" fill="rgb(0, 0, 0)" stroke="rgb(60, 60, 60)" stroke-width="1px" opacity="0.25"></line><line x1="107.32018143528751" y1="0" x2="107.32018143528751" y2="178" fill="rgb(0, 0, 0)" stroke="rgb(60, 60, 60)" stroke-width="1px" opacity="0.25"></line><line x1="142.02044424248962" y1="0" x2="142.02044424248962" y2="178" fill="rgb(0, 0, 0)" stroke="rgb(60, 60, 60)" stroke-width="1px" opacity="0.25"></line><line x1="176.7207070496917" y1="0" x2="176.7207070496917" y2="178" fill="rgb(0, 0, 0)" stroke="rgb(60, 60, 60)" stroke-width="1px" opacity="0.25"></line><line x1="211.42096985689378" y1="0" x2="211.42096985689378" y2="178" fill="rgb(0, 0, 0)" stroke="rgb(60, 60, 60)" stroke-width="1px" opacity="0.25"></line><line x1="246.12123266409586" y1="0" x2="246.12123266409586" y2="178" fill="rgb(0, 0, 0)" stroke="rgb(60, 60, 60)" stroke-width="1px" opacity="0.25"></line><line x1="280.82149547129796" y1="0" x2="280.82149547129796" y2="178" fill="rgb(0, 0, 0)" stroke="rgb(60, 60, 60)" stroke-width="1px" opacity="0.25"></line></g><g><line x1="0" y1="164.79702888301603" x2="290" y2="164.79702888301603" fill="rgb(0, 0, 0)" stroke="rgb(60, 60, 60)" stroke-width="1px" opacity="0.25"></line><line x1="0" y1="144.35019816406881" x2="290" y2="144.35019816406881" fill="rgb(0, 0, 0)" stroke="rgb(60, 60, 60)" stroke-width="1px" opacity="0.25"></line><line x1="0" y1="123.90336744512157" x2="290" y2="123.90336744512157" fill="rgb(0, 0, 0)" stroke="rgb(60, 60, 60)" stroke-width="1px" opacity="0.25"></line><line x1="0" y1="103.45653672617435" x2="290" y2="103.45653672617435" fill="rgb(0, 0, 0)" stroke="rgb(60, 60, 60)" stroke-width="1px" opacity="0.25"></line><line x1="0" y1="83.00970600722712" x2="290" y2="83.00970600722712" fill="rgb(0, 0, 0)" stroke="rgb(60, 60, 60)" stroke-width="1px" opacity="0.25"></line><line x1="0" y1="62.56287528827988" x2="290" y2="62.56287528827988" fill="rgb(0, 0, 0)" stroke="rgb(60, 60, 60)" stroke-width="1px" opacity="0.25"></line><line x1="0" y1="42.11604456933267" x2="290" y2="42.11604456933267" fill="rgb(0, 0, 0)" stroke="rgb(60, 60, 60)" stroke-width="1px" opacity="0.25"></line><line x1="0" y1="21.669213850385432" x2="290" y2="21.669213850385432" fill="rgb(0, 0, 0)" stroke="rgb(60, 60, 60)" stroke-width="1px" opacity="0.25"></line><line x1="0" y1="1.222383131438221" x2="290" y2="1.222383131438221" fill="rgb(0, 0, 0)" stroke="rgb(60, 60, 60)" stroke-width="1px" opacity="0.25"></line></g></g></g><g><g><line x1="0" y1="287.4780131966994" x2="290" y2="287.4780131966994" fill="rgb(0, 0, 0)" stroke="rgb(153, 153, 153)" stroke-width="1.5px"></line></g></g><g><g><line x1="72.61991862808541" y1="0" x2="72.61991862808541" y2="178" fill="rgb(0, 0, 0)" stroke="rgb(153, 153, 153)" stroke-width="1.5px"></line></g></g><g><g><g><g><g><path stroke="rgb(0, 153, 136)" stroke-width="2px" d="M72.61991862808541,111.77732080090354L73.31392388422947,120.51790238686021L74.0079291403735,126.11178197869026L74.70193439651754,130.34461265690402L75.3959396526616,134.10578415420602L76.08994490880563,136.97761466784675L76.78395016494967,139.39779748283866L77.47795542109371,142.11034049759004L78.17196067723775,144.12712497951097L78.86596593338179,146.0553202625469L79.55997118952584,147.42800801024424L80.25397644566988,148.80150011715557L80.94798170181393,150.14314691154985L81.64198695795797,151.19043479541048L82.335992214102,152.2525058266432L83.02999747024606,153.14761138467128L83.7240027263901,153.91790720466375L84.41800798253412,154.5611630178909L85.11201323867817,155.2419312199154L85.80601849482221,156.08091444187727L86.50002375096625,156.53195277748523L87.1940290071103,157.08154949132717L87.88803426325434,157.45758742386207L88.58203951939839,157.87575671704428L89.27604477554243,158.29124481284654L89.97005003168647,158.91000423182982L90.6640552878305,159.24933413478132L91.35806054397455,159.6674912407027L92.05206580011858,159.90747059346705L92.74607105626264,160.18045304852618L93.44007631240667,160.49629809988167L94.13408156855071,160.8768696934408L94.82808682469476,160.99831574749072L95.5220920808388,161.37888734104985L96.21609733698284,161.67252720319522L96.91010259312688,161.99399058178776L97.60410784927092,161.92377977221608L98.29811310541496,162.21298347142377L98.99211836155901,162.64989677174384L99.68612361770305,162.80103099314604L100.3801288738471,162.88049193367846L101.07413412999114,162.93253153737066L101.76813938613518,163.33530832013994L102.46214464227923,163.4786426946187L103.15614989842327,163.5571286542857L103.85015515456729,163.69166382645398L104.54416041071134,163.96624281268024L105.23816566685538,163.73746355260747L105.93217092299942,164.14284840919174L106.62617617914347,164.3484231246673L107.32018143528751,164.39606312720431L108.01418669143156,164.85677814790165L108.7081919475756,164.8066519441578L109.40219720371964,165.02295144915308L110.09620245986368,165.0176378034365L110.79020771600771,165.15560978315543L111.48421297215175,165.35183686958368L112.1782182282958,165.26874412532754L112.87222348443984,165.56647890710772L113.56622874058388,165.57886116409867L114.26023399672793,165.7319819090142L114.95423925287197,165.83440364892743L115.64824450901602,165.8080426037784L116.34224976516006,166.0405999147047L117.03625502130409,165.7160897209077L117.73026027744814,165.96357642633586L118.42426553359218,166.11968305015176L119.11827078973621,166.25652161461463L119.81227604588027,166.1526983397073L120.5062813020243,166.20563980070008L121.20028655816834,166.35348346168146L121.8942918143124,166.13806143946508L122.58829707045643,166.3121442729873L123.28230232660046,165.9823813697778L123.97630758274451,166.55670603581916L124.67031283888855,166.4989871685858L125.3643180950326,166.65722656304484L126.05832335117664,166.62111570924154L126.75232860732068,166.7455842039743L127.44633386346473,166.83642804611057L128.14033911960877,166.85340490042984L128.8343443757528,166.45240745773998L129.52834963189684,166.61538769665714L130.22235488804088,166.809701383137L130.91636014418492,167.01331394962088L131.61036540032896,166.96228588857653L132.30437065647303,166.93085494292728L132.99837591261706,167.09663825183256L133.6923811687611,167.09697949513546L134.38638642490514,166.9796039861987L135.08039168104918,166.8266416756738L135.77439693719325,166.8832149403903L136.46840219333725,167.090252127164L137.1624074494813,167.23166091443358L137.85641270562536,167.20497081324245L138.5504179617694,167.24851589614465L139.24442321791344,166.89241632230778L139.93842847405747,167.23157560360784L140.6324337302015,167.3697669540215L141.32643898634555,167.37930957924186L142.02044424248962,167.42062439341439L142.71444949863363,167.34689146546637L143.40845475477767,167.01041338154624L144.10246001092173,167.07104500411506L144.79646526706577,167.09773510530616L145.49047052320984,167.33726352942028L146.18447577935385,167.48303535606263L146.87848103549788,167.4660950635258L147.57248629164192,167.47546706709474L148.26649154778596,167.57228266703177L148.96049680393,167.4313613701949L149.65450206007407,167.3454046196466L150.3485073162181,167.5744276249357L151.04251257236214,167.38485478291398L151.73651782850618,167.54584849831784L152.43052308465022,167.63739920158156L153.12452834079428,167.50954264834144L153.81853359693832,167.50308340010798L154.51253885308236,167.59991118730585L155.2065441092264,167.71452018803694L155.90054936537044,167.66744079949757L156.59455462151448,166.2543888439715L157.28855987765854,167.46375510944878L157.98256513380258,167.50455805866696L158.67657038994662,167.58962513917558L159.37057564609063,167.71687232937478L160.06458090223467,167.66120092195882L160.7585861583787,167.7644635828685L161.45259141452277,167.72305127060943L162.1465966706668,167.83898868276967L162.84060192681085,167.76963098145526L163.5346071829549,167.20122932417138L164.22861243909892,167.7483520240673L164.922617695243,167.8152357114357L165.61662295138703,167.78574254025648L166.31062820753107,167.69035284983514L167.0046334636751,167.26539525237737L167.69863871981914,167.7138133269095L168.3926439759632,167.78462131226124L169.08664923210725,167.84478981891897L169.7806544882513,167.7888990408083L170.47465974439532,167.89420916153537L171.16866500053936,167.84195018714843L171.8626702566834,167.79000808154274L172.55667551282744,167.7744936985216L173.25068076897148,167.9021430683278L173.94468602511552,167.7075490748491L174.63869128125955,167.49239517237072L175.3326965374036,167.76860725154657L176.02670179354763,167.9208383264224L176.7207070496917,167.9267857097015L177.41471230583574,167.89710972961004L178.10871756197974,167.9372301922224L178.80272281812378,167.13179849929207L179.49672807426782,167.80292657800965L180.19073333041186,167.83092071610827L180.88473858655593,167.90551893957434L181.57874384269996,167.83349222814084L182.272749098844,167.8949769589669L182.96675435498804,167.96695492135714L183.66075961113208,167.9862473552318L184.35476486727615,167.81268857392476L185.04877012342018,167.97769189813766L185.74277537956422,167.97643661027342L186.43678063570826,167.79257959357528L187.1307858918523,167.87826822438564L187.82479114799634,167.9166702832227L188.5187964041404,167.50413150453832L189.21280166028444,167.90640860961406L189.90680691642848,167.89263700488988L190.6008121725725,167.9453469079271L191.29481742871653,167.9771069096184L191.98882268486057,167.7514232137934L192.68282794100463,167.95665668596607L193.37683319714867,167.3742274914808L194.0708384532927,167.97540069310392L194.76484370943675,168.00996376478335L195.45884896558078,167.95910632539045L196.15285422172485,167.92907691473525L196.8468594778689,167.9579241610911L197.54086473401293,167.56430001119608L198.23486999015697,167.78696126633827L198.928875246301,167.9841389591103L199.62288050244507,168.04684241601817L200.3168857585891,168.06963259374757L201.01089101473315,168.06018746661374L201.70489627087719,168.07570184963487L202.39890152702122,167.7850722409115L203.09290678316526,167.97371885111104L203.7869120393093,168.03082835530353L204.48091729545334,168.04178470277878L205.17492255159738,167.96713773026943L205.86892780774141,167.982420555335L206.56293306388545,168.05666534823737L207.2569383200295,167.95085554981677L207.95094357617356,167.9403013819485L208.6449488323176,167.9286991096499L209.33895408846163,167.93891203421526L210.03295934460567,168.02435691980924L210.7269646007497,168.0409194072607" style="fill: none;" fill="none"></path></g></g></g></g></g></g><g transform="translate(40, 178)" clip-path="url(#clip_1)"><clipPath id="clip_1"><rect width="290" height="21"></rect></clipPath><g><g><line x1="3.2193930136812394" y1="0" x2="3.2193930136812394" y2="5" style="visibility: inherit;" fill="rgb(0, 0, 0)" stroke="rgb(204, 204, 204)" stroke-width="1px"></line><line x1="37.91965582088333" y1="0" x2="37.91965582088333" y2="5" style="visibility: inherit;" fill="rgb(0, 0, 0)" stroke="rgb(204, 204, 204)" stroke-width="1px"></line><line x1="72.61991862808541" y1="0" x2="72.61991862808541" y2="5" style="visibility: inherit;" fill="rgb(0, 0, 0)" stroke="rgb(204, 204, 204)" stroke-width="1px"></line><line x1="107.32018143528751" y1="0" x2="107.32018143528751" y2="5" style="visibility: inherit;" fill="rgb(0, 0, 0)" stroke="rgb(204, 204, 204)" stroke-width="1px"></line><line x1="142.02044424248962" y1="0" x2="142.02044424248962" y2="5" style="visibility: inherit;" fill="rgb(0, 0, 0)" stroke="rgb(204, 204, 204)" stroke-width="1px"></line><line x1="176.7207070496917" y1="0" x2="176.7207070496917" y2="5" style="visibility: inherit;" fill="rgb(0, 0, 0)" stroke="rgb(204, 204, 204)" stroke-width="1px"></line><line x1="211.42096985689378" y1="0" x2="211.42096985689378" y2="5" style="visibility: inherit;" fill="rgb(0, 0, 0)" stroke="rgb(204, 204, 204)" stroke-width="1px"></line><line x1="246.12123266409586" y1="0" x2="246.12123266409586" y2="5" style="visibility: inherit;" fill="rgb(0, 0, 0)" stroke="rgb(204, 204, 204)" stroke-width="1px"></line><line x1="280.82149547129796" y1="0" x2="280.82149547129796" y2="5" style="visibility: inherit;" fill="rgb(0, 0, 0)" stroke="rgb(204, 204, 204)" stroke-width="1px"></line></g><g transform="translate(0, 8)"><text x="3.2193930136812394" y="0" dx="0em" dy="0.95em" style="text-anchor: middle; visibility: hidden; font-family: &quot;Helvetica Neue&quot;, sans-serif; font-size: 12px; font-weight: 200;" fill="rgb(50, 49, 63)" stroke="none" stroke-width="1px">-100</text><text x="37.91965582088333" y="0" dx="0em" dy="0.95em" style="text-anchor: middle; visibility: inherit; font-family: &quot;Helvetica Neue&quot;, sans-serif; font-size: 12px; font-weight: 200;" fill="rgb(50, 49, 63)" stroke="none" stroke-width="1px">-50</text><text x="72.61991862808541" y="0" dx="0em" dy="0.95em" style="text-anchor: middle; visibility: inherit; font-family: &quot;Helvetica Neue&quot;, sans-serif; font-size: 12px; font-weight: 200;" fill="rgb(50, 49, 63)" stroke="none" stroke-width="1px">0</text><text x="107.32018143528751" y="0" dx="0em" dy="0.95em" style="text-anchor: middle; visibility: inherit; font-family: &quot;Helvetica Neue&quot;, sans-serif; font-size: 12px; font-weight: 200;" fill="rgb(50, 49, 63)" stroke="none" stroke-width="1px">50</text><text x="142.02044424248962" y="0" dx="0em" dy="0.95em" style="text-anchor: middle; visibility: inherit; font-family: &quot;Helvetica Neue&quot;, sans-serif; font-size: 12px; font-weight: 200;" fill="rgb(50, 49, 63)" stroke="none" stroke-width="1px">100</text><text x="176.7207070496917" y="0" dx="0em" dy="0.95em" style="text-anchor: middle; visibility: inherit; font-family: &quot;Helvetica Neue&quot;, sans-serif; font-size: 12px; font-weight: 200;" fill="rgb(50, 49, 63)" stroke="none" stroke-width="1px">150</text><text x="211.42096985689378" y="0" dx="0em" dy="0.95em" style="text-anchor: middle; visibility: inherit; font-family: &quot;Helvetica Neue&quot;, sans-serif; font-size: 12px; font-weight: 200;" fill="rgb(50, 49, 63)" stroke="none" stroke-width="1px">200</text><text x="246.12123266409586" y="0" dx="0em" dy="0.95em" style="text-anchor: middle; visibility: inherit; font-family: &quot;Helvetica Neue&quot;, sans-serif; font-size: 12px; font-weight: 200;" fill="rgb(50, 49, 63)" stroke="none" stroke-width="1px">250</text><text x="280.82149547129796" y="0" dx="0em" dy="0.95em" style="text-anchor: middle; visibility: hidden; font-family: &quot;Helvetica Neue&quot;, sans-serif; font-size: 12px; font-weight: 200;" fill="rgb(50, 49, 63)" stroke="none" stroke-width="1px">300</text></g><line x1="0" y1="0" x2="290" y2="0" fill="rgb(0, 0, 0)" stroke="rgb(204, 204, 204)" stroke-width="1px"></line></g></g></g></g></svg>